<svg width="800" height="1200" xmlns="http://www.w3.org/2000/svg">
  <rect x="0" y="0" width="800" height="1200" fill="#e0f7fa" />
  
  <rect x="0" y="0" width="800" height="100" fill="#b2ebf2" />
  <text x="400" y="50" font-size="24" text-anchor="middle" fill="#000">Logo Placeholder</text>
  
  <rect x="0" y="100" width="800" height="50" fill="#ffffff" />
  <text x="400" y="130" font-size="18" text-anchor="middle" fill="#00796b">Navigation Menu</text>

  <text x="50" y="180" font-size="20" fill="#000">Contact Page Title</text>
  
  <rect x="50" y="210" width="700" height="300" fill="#cfd8dc" />
  <text x="400" y="250" font-size="16" text-anchor="middle" fill="#000">Map Placeholder</text>
  
  <text x="50" y="530" font-size="20" fill="#000">Company Information Section</text>
  <rect x="50" y="550" width="700" height="100" fill="#ffffff" />
  
  <text x="50" y="680" font-size="20" fill="#000">Meet Our Team Section</text>
  <rect x="50" y="700" width="700" height="100" fill="#ffffff" />
  
  <text x="50" y="820" font-size="20" fill="#000">Get in Touch Section</text>
  <rect x="50" y="840" width="700" height="250" fill="#ffffff" />
  
  <text x="70" y="870" font-size="16" fill="#000">Name Field</text>
  <rect x="150" y="860" width="500" height="30" fill="#f0f0f0" />
  
  <text x="70" y="910" font-size="16" fill="#000">Email Field</text>
  <rect x="150" y="900" width="500" height="30" fill="#f0f0f0" />
  
  <text x="70" y="950" font-size="16" fill="#000">Purpose of Message Dropdown</text>
  <rect x="150" y="940" width="500" height="30" fill="#f0f0f0" />
  
  <text x="70" y="990" font-size="16" fill="#000">Message Textarea</text>
  <rect x="150" y="980" width="500" height="100" fill="#f0f0f0" />
  
  <rect x="150" y="1090" width="200" height="40" fill="#00796b" />
  <text x="250" y="1115" font-size="16" text-anchor="middle" fill="#ffffff">Send Message Button</text>
  
  <rect x="0" y="1160" width="800" height="40" fill="#b2ebf2" />
  <text x="400" y="1180" font-size="12" text-anchor="middle" fill="#000">Copyright Section</text>
</svg>